<svg viewBox="0 0 16 16" version="1.1" xmlns="http://www.w3.org/2000/svg"><path d="M11.605,3.03548387 C10.625,3.03548387 9.715,3.46129032 9.12,4.17096774 L4.675,8.67741935 L3.415,7.4 C3.205,7.1516129 3.065,6.83225806 3.065,6.51290323 C3.065,5.73225806 3.66,5.12903226 4.43,5.12903226 C4.78,5.12903226 5.06,5.23548387 5.305,5.48387097 L5.445,5.62580645 L5.62,5.80322581 L6.705,4.70322581 L7.02,4.38387097 L6.74,4.1 L6.635,3.99354839 C6.005,3.35483871 5.2,3.03548387 4.325,3.03548387 C2.505,3.03548387 1,4.52580645 1,6.37096774 C1,7.22258065 1.315,8.00322581 1.805,8.60645161 L4.64,11.516129 L10.59,5.48387097 C10.835,5.27096774 11.15,5.12903226 11.465,5.12903226 C12.2,5.12903226 12.795,5.73225806 12.795,6.47741935 C12.795,6.83225806 12.69,7.11612903 12.445,7.36451613 L8.56,11.3741935 C8.42,11.5516129 8.175,11.6225806 7.965,11.6225806 C7.72,11.6225806 7.51,11.516129 7.37,11.3741935 L7.055,11.0903226 L5.655,12.5096774 L5.935,12.7935484 C6.46,13.3258065 7.16,13.6451613 7.93,13.6451613 C8.7,13.6451613 9.4,13.3258065 9.925,12.7935484 L14.055,8.60645161 C14.545,8.03870968 14.86,7.22258065 14.86,6.37096774 C14.93,4.52580645 13.425,3.03548387 11.605,3.03548387 L11.605,3.03548387 Z" class="icon-color"/></svg>
