<svg viewBox="0 0 16 16" xmlns="http://www.w3.org/2000/svg">
    <path stroke="#B9B9B9" fill="#B9B9B9" d="M2 0v16h12V4l-4-4z"/>
    <path fill="#FFF" opacity=".65" d="M10 3.98V0l4 4z"/>
    <path opacity=".15" d="M14 4.024V9l-4-5z"/>
    <path d="M10.06 7.02c-.56 0-1.08.232-1.42.619L6.1 10.097 5.38 9.4a.75.75 0 0 1-.2-.484c0-.426.34-.755.78-.755.2 0 .36.058.5.194l.08.077.1.097.62-.6.18-.174-.16-.155-.06-.058a1.86 1.86 0 0 0-1.32-.523c-1.04 0-1.9.813-1.9 1.82 0 .464.18.89.46 1.22l1.62 1.586 3.4-3.29a.804.804 0 0 1 .5-.194c.42 0 .76.33.76.736 0 .193-.06.348-.2.484l-2.22 2.187c-.08.097-.22.135-.34.135a.49.49 0 0 1-.34-.135l-.18-.155-.8.774.16.155a1.63 1.63 0 0 0 2.28 0l2.36-2.284c.28-.31.46-.755.46-1.22.04-1.006-.82-1.819-1.86-1.819z" fill="#FFF"/>
</svg>
